<?xml version="1.0" encoding="UTF-8"?>
<svg width="128px" height="128px" viewBox="0 0 128 128" version="1.1" xmlns="http://www.w3.org/2000/svg" xmlns:xlink="http://www.w3.org/1999/xlink">
    <!-- Generator: Sketch 55.2 (78181) - https://sketchapp.com -->
    <title>ksc-logo</title>
    <desc>Created with Sketch.</desc>
    <g id="ksc-logo" stroke="none" stroke-width="1" fill="none" fill-rule="evenodd">
        <g id="Product-Icon-/-02-B2B-/-03-128-/-Security-Center">
            <g id="Group-40" transform="translate(8.000000, 0.000000)">
                <path d="M61.9587378,5.70849527 C58.7341461,3.8658714 53.2662397,3.86565094 50.0412622,5.70849527 L7.94329359,29.7644773 C4.72520024,31.6033878 2,36.2984208 2,40.0085154 L2,87.9914846 C2,91.6974222 4.72666546,96.3974495 7.94329359,98.2355227 L50.0412622,122.291505 C53.2658539,124.134129 58.7337603,124.134349 61.9587378,122.291505 L104.056706,98.2355227 C107.2748,96.3966122 110,91.7015792 110,87.9914846 L110,40.0085154 C110,36.3025778 107.273335,31.6025505 104.056706,29.7644773 L61.9587378,5.70849527 Z" id="Fill-3-Copy-17" stroke="#00A88E" stroke-width="4"></path>
                <rect id="Rectangle-25" fill="#000000" x="26" y="40" width="60" height="48"></rect>
                <rect id="Rectangle-25-Copy" fill="#FFFFFF" x="30" y="52" width="52" height="32"></rect>
                <rect id="Rectangle-25-Copy-2" fill="#000000" x="40" y="56" width="4" height="24"></rect>
                <rect id="Rectangle-25-Copy-5" fill="#000000" x="36" y="58" width="12" height="4"></rect>
                <rect id="Rectangle-25-Copy-6" fill="#000000" x="50" y="72" width="12" height="4"></rect>
                <rect id="Rectangle-25-Copy-7" fill="#000000" x="64" y="62" width="12" height="4"></rect>
                <rect id="Rectangle-25-Copy-3" fill="#000000" x="68" y="56" width="4" height="24"></rect>
                <rect id="Rectangle-25-Copy-4" fill="#000000" x="54" y="56" width="4" height="24"></rect>
            </g>
        </g>
    </g>
</svg>